<?xml version="1.0" ?><svg viewBox="0 0 512 512" xmlns="http://www.w3.org/2000/svg"><g data-name="Capa 11" id="Capa_11"><path d="M416.47,409.45H95.53a18.66,18.66,0,0,1-18.64-18.64V121.19a18.66,18.66,0,0,1,18.64-18.64H416.47a18.66,18.66,0,0,1,18.64,18.64V390.81A18.66,18.66,0,0,1,416.47,409.45ZM95.53,114.55a6.65,6.65,0,0,0-6.64,6.64V390.81a6.65,6.65,0,0,0,6.64,6.64H416.47a6.65,6.65,0,0,0,6.64-6.64V121.19a6.65,6.65,0,0,0-6.64-6.64Z"/><path d="M184.57,257.66H129.81a6,6,0,0,1-6-6V196.89a6,6,0,0,1,6-6h54.76a6,6,0,0,1,6,6v54.77A6,6,0,0,1,184.57,257.66Zm-48.76-12h42.76V202.89H135.81Z"/><path d="M283.38,257.66H228.62a6,6,0,0,1-6-6V196.89a6,6,0,0,1,6-6h54.76a6,6,0,0,1,6,6v54.77A6,6,0,0,1,283.38,257.66Zm-48.76-12h42.76V202.89H234.62Z"/><path d="M382.19,257.66H327.43a6,6,0,0,1-6-6V196.89a6,6,0,0,1,6-6h54.76a6,6,0,0,1,6,6v54.77A6,6,0,0,1,382.19,257.66Zm-48.76-12h42.76V202.89H333.43Z"/><path d="M184.57,353.89H129.81a6,6,0,0,1-6-6V293.12a6,6,0,0,1,6-6h54.76a6,6,0,0,1,6,6v54.77A6,6,0,0,1,184.57,353.89Zm-48.76-12h42.76V299.12H135.81Z"/><path d="M283.38,353.89H228.62a6,6,0,0,1-6-6V293.12a6,6,0,0,1,6-6h54.76a6,6,0,0,1,6,6v54.77A6,6,0,0,1,283.38,353.89Zm-48.76-12h42.76V299.12H234.62Z"/><path d="M382.19,353.89H327.43a6,6,0,0,1-6-6V293.12a6,6,0,0,1,6-6h54.76a6,6,0,0,1,6,6v54.77A6,6,0,0,1,382.19,353.89Zm-48.76-12h42.76V299.12H333.43Z"/><path d="M429.11,155.92H82.89a6,6,0,0,1,0-12H429.11a6,6,0,0,1,0,12Z"/></g></svg>